<?xml version="1.0" encoding="UTF-8"?>
<svg width="40px" height="34px" viewBox="0 0 40 34" version="1.1" xmlns="http://www.w3.org/2000/svg" xmlns:xlink="http://www.w3.org/1999/xlink">
    <title>hoteely logo@0,5x</title>
    <g id="Symbols" stroke="none" stroke-width="1" fill="none" fill-rule="evenodd">
        <g id="navigation/menu/side-menu" transform="translate(-36.000000, -15.000000)">
            <g id="hoteely-logo" transform="translate(36.000000, 15.000000)">
                <path d="M3.29269605,3.57903008e-15 C4.20151756,3.57903008e-15 5.02712584,0.369639641 5.62235446,0.970785793 C6.17499442,1.52594113 6.53174449,2.28071178 6.57988919,3.11660642 L6.58547,3.31089132 L6.58547,12.4498231 C6.58547,13.0820937 7.06739704,13.6034066 7.6816303,13.6625498 L7.79826414,13.6681373 L20.5180845,13.6681373 C24.936516,13.8165393 28.4895893,17.4018469 28.6107956,21.8488222 L28.6139922,22.0836553 L28.6139922,30.6922387 C28.6139922,32.4641272 27.2295433,33.9072382 25.4876738,33.9957023 L25.2732533,34 C24.2716178,34 23.3756882,33.5531263 22.7708783,32.8458518 C22.3161868,32.3155133 22.0282581,31.6393186 21.9834275,30.8964368 L21.9772856,30.6922387 L21.9772856,21.1193056 C21.9772856,20.487035 21.4982566,19.9657047 20.8842994,19.9065596 L20.7676852,19.9009718 L7.79826414,19.9009718 C7.16885832,19.9009718 6.6499074,20.3851097 6.59103223,21.0021407 L6.58547,21.1193056 L6.58547,30.6922387 C6.58547,32.5212849 5.11353282,34 3.29269605,34 C2.38397192,34 1.5615574,33.6303408 0.96319344,33.0323443 C0.410499234,32.4771708 0.0537284955,31.7224157 0.00558111551,30.8865234 L0,30.6922387 L0,3.31089132 C0,1.48184512 1.47515042,3.57903008e-15 3.29269605,3.57903008e-15 Z M25.3180245,2.97378466 C27.0818846,2.97378466 28.5214542,4.36446157 28.6097048,6.11425471 L28.6139922,6.28467598 L28.6139922,14.9153263 C27.0165789,13.0359051 24.805741,11.6987631 22.2929364,11.2222109 L21.9772856,11.1671471 L21.9772856,6.28467598 C21.9772856,4.51278747 23.3616614,3.06673904 25.1035971,2.97809138 L25.3180245,2.97378466 Z" id="Shape" fill="#FFFFFF"></path>
                <path d="M34.4675189,33.0558568 C33.8290771,32.4268532 33.5099341,31.6608902 33.5099341,30.7579874 C33.5099341,29.8556324 33.8290771,29.0896694 34.4675189,28.4600398 C35.1058634,27.8310362 35.8622994,27.5159377 36.7372553,27.5159377 C37.6355217,27.5159377 38.4041485,27.8310362 39.0424151,28.4600398 C39.680857,29.0896694 40,29.8556324 40,30.7579874 C40,31.6608902 39.680857,32.4268532 39.0424151,33.0558568 C38.4041485,33.6854865 37.6355217,33.999998 36.7372553,33.999998 C35.8622994,33.999998 35.1058634,33.6854865 34.4675189,33.0558568" id="Fill-4" fill="#02CD90"></path>
            </g>
        </g>
    </g>
</svg>